M48
; DRILL file {KiCad (5.1.4)-1} date 19-11-14 목 오후 01:23:41
; FORMAT={-:-/ absolute / metric / decimal}
; #@! TF.CreationDate,2019-11-14T13:23:41+09:00
; #@! TF.GenerationSoftware,Kicad,Pcbnew,(5.1.4)-1
; #@! TF.FileFunction,Plated,1,2,PTH
FMAT,2
METRIC
T1C0.400
T2C0.762
T3C0.800
T4C0.850
T5C0.900
T6C1.000
%
G90
G05
T1
X127.7Y-70.4
T2
X123.35Y-52.35
X123.35Y-54.9
X124.9Y-51.05
X124.9Y-53.65
X124.9Y-56.15
T3
X56.16Y-59.94
X56.16Y-62.48
X56.16Y-65.02
X56.16Y-67.56
X56.16Y-70.1
X56.16Y-72.64
X56.16Y-75.18
X56.16Y-77.72
X56.16Y-80.26
X56.16Y-82.8
X56.16Y-85.34
X56.16Y-87.88
X56.16Y-90.42
X56.16Y-92.96
X56.16Y-95.5
X71.4Y-59.94
X71.4Y-62.48
X71.4Y-65.02
X71.4Y-67.56
X71.4Y-70.1
X71.4Y-72.64
X71.4Y-75.18
X71.4Y-77.72
X71.4Y-80.26
X71.4Y-82.8
X71.4Y-85.34
X71.4Y-87.88
X71.4Y-90.42
X71.4Y-92.96
X71.4Y-95.5
T4
X48.5Y-73.8
X48.5Y-76.3
X48.5Y-78.8
X48.5Y-81.3
X48.5Y-83.8
X97.5Y-81.0
X100.0Y-81.0
X102.5Y-81.0
X113.9Y-68.05
X113.9Y-70.55
X113.9Y-73.05
X113.9Y-75.55
X113.9Y-78.05
X85.6Y-62.2
X88.1Y-62.2
X90.6Y-62.2
X115.0Y-101.0
X115.0Y-103.5
X115.0Y-106.0
X48.5Y-90.7
X48.5Y-93.2
X85.7Y-74.8
X88.2Y-74.8
X90.7Y-74.8
X97.5Y-87.4
X100.0Y-87.4
X102.5Y-87.4
X97.6Y-62.1
X100.1Y-62.1
X102.6Y-62.1
X97.5Y-74.7
X100.0Y-74.7
X102.5Y-74.7
X85.7Y-87.4
X88.2Y-87.4
X90.7Y-87.4
X85.7Y-81.1
X88.2Y-81.1
X90.7Y-81.1
X85.6Y-68.5
X88.1Y-68.5
X90.6Y-68.5
X97.6Y-95.9
X100.1Y-95.9
X88.2Y-95.9
X90.7Y-95.9
X114.65Y-51.2
X114.65Y-53.7
X114.65Y-56.2
X97.5Y-68.4
X100.0Y-68.4
X102.5Y-68.4
T5
X132.1Y-70.2
X132.1Y-71.47
X132.1Y-72.74
X132.1Y-74.01
T6
X61.1Y-106.4
X66.1Y-106.4
T0
M30
