G04 #@! TF.GenerationSoftware,KiCad,Pcbnew,(5.1.4)-1*
G04 #@! TF.CreationDate,2019-11-14T13:23:43+09:00*
G04 #@! TF.ProjectId,BT_speaker,42545f73-7065-4616-9b65-722e6b696361,rev?*
G04 #@! TF.SameCoordinates,Original*
G04 #@! TF.FileFunction,Profile,NP*
%FSLAX46Y46*%
G04 Gerber Fmt 4.6, Leading zero omitted, Abs format (unit mm)*
G04 Created by KiCad (PCBNEW (5.1.4)-1) date 2019-11-14 13:23:43*
%MOMM*%
%LPD*%
G04 APERTURE LIST*
%ADD10C,0.120000*%
G04 APERTURE END LIST*
D10*
X126600000Y-107500000D02*
G75*
G03X126600000Y-107500000I-1200000J0D01*
G01*
X126600000Y-99500000D02*
G75*
G03X126600000Y-99500000I-1200000J0D01*
G01*
X127400000Y-109500000D02*
X127400000Y-97500000D01*
X112100000Y-109500000D02*
X127400000Y-109500000D01*
X112100000Y-109500000D02*
X112100000Y-97500000D01*
X112100000Y-97500000D02*
X127400000Y-97500000D01*
X135800000Y-80050000D02*
G75*
G03X135800000Y-80050000I-1200000J0D01*
G01*
X121800000Y-66050000D02*
G75*
G03X121800000Y-66050000I-1200000J0D01*
G01*
X136600000Y-64050000D02*
X136600000Y-82050000D01*
X110600000Y-64050000D02*
X110600000Y-82050000D01*
X110600000Y-82050000D02*
X136600000Y-82050000D01*
X110600000Y-64050000D02*
X136600000Y-64050000D01*
X110500000Y-61000000D02*
X136500000Y-61000000D01*
X49600000Y-109000000D02*
G75*
G03X49600000Y-109000000I-1600000J0D01*
G01*
X49600000Y-50000000D02*
G75*
G03X49600000Y-50000000I-1600000J0D01*
G01*
X103600000Y-50000000D02*
G75*
G03X103600000Y-50000000I-1600000J0D01*
G01*
X119700000Y-48500000D02*
G75*
G03X119700000Y-48500000I-1200000J0D01*
G01*
X119700000Y-59000000D02*
G75*
G03X119700000Y-59000000I-1200000J0D01*
G01*
X110500000Y-46500000D02*
X110500000Y-61000000D01*
X110500000Y-46500000D02*
X136500000Y-46500000D01*
X136500000Y-46500000D02*
X136500000Y-61000000D01*
X105000000Y-46000000D02*
G75*
G02X106000000Y-47000000I0J-1000000D01*
G01*
X106000000Y-112000000D02*
G75*
G02X105000000Y-113000000I-1000000J0D01*
G01*
X45000000Y-113000000D02*
G75*
G02X44000000Y-112000000I0J1000000D01*
G01*
X44000000Y-47000000D02*
G75*
G02X45000000Y-46000000I1000000J0D01*
G01*
X103600000Y-109000000D02*
G75*
G03X103600000Y-109000000I-1600000J0D01*
G01*
X44000000Y-112000000D02*
X44000000Y-47000000D01*
X105000000Y-113000000D02*
X45000000Y-113000000D01*
X106000000Y-47000000D02*
X106000000Y-112000000D01*
X45000000Y-46000000D02*
X105000000Y-46000000D01*
M02*
